<svg width="157" height="23" viewBox="0 0 157 23" fill="none" xmlns="http://www.w3.org/2000/svg">
<g filter="url(#filter0_d_15_847)">
<path d="M79.48 1.89984L79.68 2.09984C79.81 2.22984 80 2.43984 80.24 2.71984C80.5252 3.06922 80.7826 3.44035 81.01 3.82984C81.3233 4.36726 81.559 4.94634 81.71 5.54984C81.8032 5.90992 81.8601 6.27842 81.88 6.64984C81.9055 7.06116 81.882 7.47406 81.81 7.87984C81.6477 8.80287 81.2671 9.67373 80.7 10.4198C80.0545 11.2607 79.2447 11.9616 78.32 12.4798C77.3014 13.0442 76.1965 13.4361 75.05 13.6398C73.8094 13.8648 72.5424 13.9052 71.29 13.7598C69.9548 13.5999 68.6467 13.2637 67.4 12.7598C66.0889 12.2415 64.8436 11.5702 63.69 10.7598C63.1033 10.3465 62.5333 9.90317 61.98 9.42984C61.71 9.18984 61.43 8.94984 61.17 8.68984L60.97 8.49984L60.86 8.39984L60.76 8.29984C60.63 8.16984 60.51 8.04984 60.38 7.89984C59.8587 7.3446 59.3994 6.73435 59.01 6.07984C58.8125 5.74536 58.6452 5.39397 58.51 5.02984C58.369 4.65906 58.2717 4.27313 58.22 3.87984C58.1543 3.47918 58.1543 3.0705 58.22 2.66984C58.302 2.26462 58.4653 1.88021 58.7 1.53984C58.9387 1.20063 59.2451 0.914615 59.6 0.699842C59.9563 0.488966 60.3503 0.349689 60.76 0.289838C60.963 0.27383 61.167 0.27383 61.37 0.289838H61.68H61.97C62.3787 0.340519 62.781 0.434375 63.17 0.569837C63.9536 0.849058 64.6741 1.2807 65.29 1.83984C65.6014 2.11929 65.886 2.4273 66.14 2.75984C66.399 3.09131 66.6267 3.44617 66.82 3.81984C67.21 4.57552 67.4607 5.39528 67.56 6.23984C67.7046 7.12006 67.6774 8.01995 67.48 8.88984C67.2586 9.74524 66.8448 10.5388 66.27 11.2098C65.6935 11.8672 64.9847 12.3954 64.19 12.7598C63.4356 13.1136 62.6339 13.3561 61.81 13.4798C61.0162 13.6019 60.2126 13.6488 59.41 13.6198C58.6295 13.5943 57.8514 13.5208 57.08 13.3998L56.5 13.2998L55.94 13.1898C55.56 13.1098 55.19 13.0098 54.83 12.9098C54.1 12.7098 53.39 12.4798 52.7 12.2498C51.31 11.7798 49.96 11.2498 48.65 10.7898C47.34 10.3298 46.05 9.78984 44.8 9.35984C42.3 8.44984 39.91 7.65984 37.67 7.07984C35.6469 6.51852 33.5736 6.15679 31.48 5.99984C29.8606 5.8761 28.2319 6.0214 26.66 6.42984C26.0814 6.5907 25.519 6.80496 24.98 7.06984C24.5832 7.27096 24.2022 7.50161 23.84 7.75984C23.614 7.92115 23.397 8.09474 23.19 8.27984L22.98 8.46984L23.19 8.26984C23.3898 8.07514 23.6001 7.89153 23.82 7.71984C24.1742 7.44545 24.5486 7.19809 24.94 6.97984C25.4764 6.68824 26.0389 6.4472 26.62 6.25984C27.3395 6.02486 28.0794 5.85747 28.83 5.75984C29.7085 5.64632 30.5944 5.59952 31.48 5.61984C33.6167 5.70121 35.7403 5.99262 37.82 6.48984C40.11 7.00984 42.54 7.73984 45.08 8.56984C46.35 8.98984 47.65 9.42984 48.98 9.87984C50.31 10.3298 51.66 10.7898 53.04 11.2098C53.73 11.4198 54.43 11.6198 55.13 11.7898C55.48 11.8698 55.84 11.9598 56.18 12.0198L56.72 12.1098L57.25 12.1798C58.6854 12.3934 60.1445 12.3934 61.58 12.1798C62.2729 12.0593 62.9459 11.844 63.58 11.5398C64.5054 11.1066 65.2656 10.3854 65.7469 9.48408C66.2282 8.58277 66.4047 7.54983 66.25 6.53984C66.1621 5.85165 65.9804 5.17873 65.71 4.53984C65.5756 4.19646 65.4186 3.86239 65.24 3.53984C65.0594 3.23136 64.8555 2.93717 64.63 2.65984C64.1888 2.07833 63.6256 1.60047 62.98 1.25984C62.663 1.10083 62.3269 0.983198 61.98 0.909841H61.7H61.44C61.2637 0.892652 61.0862 0.892652 60.91 0.909841C60.5664 0.946684 60.2343 1.05462 59.9348 1.22678C59.6352 1.39894 59.3748 1.63156 59.17 1.90984C58.7871 2.50137 58.6441 3.21656 58.77 3.90984C58.8238 4.25414 58.9212 4.59019 59.06 4.90984C59.1985 5.23737 59.3658 5.55194 59.56 5.84984C59.9492 6.44361 60.4055 6.99056 60.92 7.47984C61.04 7.59984 61.18 7.72984 61.32 7.84984L61.42 7.93984L61.52 8.01984L61.72 8.18984C61.99 8.41984 62.27 8.63984 62.54 8.85984C63.1 9.27984 63.66 9.68984 64.24 10.0598C64.82 10.4298 65.41 10.7598 66 11.0598L66.45 11.2798L66.9 11.4798L67.35 11.6698L67.8 11.8498L68.25 12.0198L68.7 12.1798L69.61 12.4398C70.2053 12.5947 70.8098 12.7116 71.42 12.7898C72.5776 12.9525 73.7523 12.9525 74.91 12.7898C75.958 12.6229 76.9714 12.285 77.91 11.7898C78.7655 11.3569 79.5242 10.7548 80.14 10.0198C80.6927 9.36683 81.0833 8.59246 81.28 7.75984C81.3659 7.39608 81.4096 7.02361 81.41 6.64984C81.4126 6.31437 81.3824 5.97945 81.32 5.64984C81.2119 5.06795 81.0269 4.503 80.77 3.96984C80.5775 3.57134 80.357 3.18703 80.11 2.81984C79.91 2.51984 79.74 2.29984 79.62 2.14984L79.48 1.92984V1.89984Z" fill="#C09068"/>
<path d="M80.6599 8.22989L80.4899 8.39989L80.2799 8.59989L79.9499 8.85989C79.8299 8.95989 79.6799 9.03989 79.5099 9.14989C79.4225 9.20154 79.3324 9.24828 79.2399 9.28989C79.1499 9.28989 79.0499 9.38989 78.9399 9.42989L78.6099 9.56989L78.2399 9.67989C78.1099 9.67989 77.9799 9.7399 77.8399 9.7699C77.6979 9.80114 77.5544 9.82451 77.4099 9.8399C76.7402 9.91525 76.0625 9.86781 75.4099 9.6999L75.1499 9.6299L74.8899 9.53989C74.7094 9.47609 74.5325 9.40265 74.3599 9.31989C74.0024 9.14276 73.6669 8.92463 73.3599 8.6699C73.0247 8.41005 72.7283 8.10361 72.4799 7.75989C72.2157 7.38445 72.0412 6.95338 71.9699 6.49989C71.9311 6.2639 71.9451 6.02225 72.0108 5.7923C72.0765 5.56234 72.1923 5.34979 72.3499 5.1699C72.5146 4.97883 72.741 4.85146 72.9899 4.8099C73.2476 4.77543 73.5098 4.80993 73.7499 4.90989C74.2458 5.12539 74.6742 5.47091 74.9899 5.90989C75.3198 6.34893 75.5516 6.85361 75.6699 7.38989C75.8077 7.94215 75.8416 8.51523 75.7699 9.07989C75.6927 9.66118 75.5025 10.2217 75.2099 10.7299C74.9072 11.2399 74.5219 11.6961 74.0699 12.0799C73.6184 12.4714 73.1215 12.8071 72.5899 13.0799C72.3299 13.2199 72.0499 13.3399 71.7799 13.4499L71.5699 13.5299H71.4599H71.3599L70.9399 13.6799C70.6599 13.7799 70.3699 13.8699 70.0799 13.9599C69.7899 14.0499 69.4999 14.1399 69.1999 14.2099L68.7599 14.3199L68.3099 14.4199L67.8599 14.5099L67.4799 14.5599C66.8608 14.653 66.2359 14.7031 65.6099 14.7099C64.974 14.7186 64.3386 14.6751 63.7099 14.5799C63.0744 14.4873 62.4462 14.3503 61.8299 14.1699C61.2099 13.9899 60.5999 13.7699 59.9999 13.5199C59.3999 13.2699 58.8099 12.9999 58.2299 12.7099C57.0599 12.1299 55.9299 11.4899 54.8199 10.8199L53.1599 9.81989L52.3399 9.29989L51.4799 8.75989L50.6699 8.24989L49.8699 7.74989C49.3299 7.41989 48.7899 7.09989 48.2499 6.74989C46.1377 5.54919 43.9181 4.54819 41.6199 3.75989C40.5274 3.37372 39.4076 3.06954 38.2699 2.84989C37.1996 2.64322 36.1092 2.55934 35.0199 2.59989C34.7599 2.59989 34.4999 2.5999 34.2499 2.6699L33.8699 2.72989L33.4799 2.75989C33.0052 2.86761 32.5452 3.03213 32.1099 3.24989L31.9499 3.32989L31.7999 3.4199L31.4999 3.60989C31.3103 3.74079 31.1299 3.88446 30.9599 4.03989C30.6272 4.33641 30.3317 4.6722 30.0799 5.03989L29.9099 5.3099L29.7499 5.59989C29.6977 5.69724 29.651 5.79739 29.6099 5.89989C29.5647 5.99775 29.5247 6.09789 29.4899 6.1999C29.341 6.59297 29.2403 7.00262 29.1899 7.4199C29.1416 7.8151 29.1416 8.21469 29.1899 8.60989C29.2379 9.00387 29.3353 9.39025 29.4799 9.75989C29.677 10.4171 30.0187 11.0219 30.4799 11.5299C30.8996 11.9415 31.4001 12.2616 31.9499 12.4699C32.4015 12.6355 32.8788 12.7201 33.3599 12.7199H33.6699H33.9499L34.4399 12.6399L34.8199 12.5399L35.0899 12.4499L35.3099 12.3699C35.3288 12.3692 35.3474 12.3744 35.3632 12.3849C35.379 12.3953 35.391 12.4105 35.3977 12.4282C35.4043 12.4459 35.4052 12.4653 35.4002 12.4835C35.3952 12.5018 35.3846 12.518 35.3699 12.5299L35.1499 12.6299L34.8799 12.7499L34.4899 12.8799L33.9899 13.0099H33.6899H33.5299H33.3599C32.8339 13.0476 32.3054 12.99 31.7999 12.8399C31.1607 12.6354 30.5738 12.2942 30.0799 11.8399C29.4963 11.3151 29.0383 10.6657 28.7399 9.93989C28.3962 9.11177 28.2556 8.21343 28.3299 7.31989C28.3695 6.83667 28.4668 6.35995 28.6199 5.89989C28.6199 5.77989 28.6999 5.66989 28.7499 5.54989C28.7939 5.43074 28.8439 5.31393 28.8999 5.1999L29.0699 4.84989L29.2699 4.49989C29.3399 4.37989 29.4099 4.27989 29.4699 4.17989L29.5699 4.02989L29.6199 3.9499L29.8799 3.63989L29.9499 3.5599L30.0199 3.4899L30.1699 3.34989C30.3673 3.15573 30.5778 2.97532 30.7999 2.8099L31.1499 2.57989L31.4799 2.45989L31.6699 2.35989C32.1645 2.09934 32.6881 1.89795 33.2299 1.75989L33.6499 1.65989L34.0799 1.57989C34.3699 1.51989 34.6599 1.49989 34.9499 1.46989C36.1332 1.39364 37.3215 1.45741 38.4899 1.65989C39.6934 1.86462 40.88 2.15877 42.0399 2.53989C44.4364 3.3514 46.7502 4.38942 48.9499 5.63989C49.5099 5.94989 50.0699 6.27989 50.6199 6.63989C51.1699 6.99989 51.7199 7.34989 52.2399 7.70989L53.8099 8.75989L55.3799 9.8799C56.3799 10.6199 57.4799 11.3499 58.5599 12.0199C59.0999 12.3499 59.6499 12.6699 60.2099 12.9499C60.767 13.2383 61.3415 13.4922 61.9299 13.7099C63.6732 14.3693 65.556 14.5724 67.3999 14.2999C67.9981 14.2151 68.5896 14.0881 69.1699 13.9199L69.5999 13.7899L70.0299 13.6499C70.3099 13.5499 70.5899 13.4499 70.8599 13.3399L71.2699 13.1699H71.3699H71.4699L71.6699 13.0799C71.9299 12.9599 72.1899 12.8299 72.4399 12.6799C72.9279 12.4012 73.3811 12.0656 73.7899 11.6799C74.1912 11.3186 74.5292 10.8927 74.7899 10.4199C75.2602 9.52205 75.3814 8.48179 75.1299 7.49989C75.0058 7.03902 74.8244 6.59555 74.5899 6.17989C74.4807 5.97247 74.3536 5.77505 74.2099 5.5899C74.0707 5.40638 73.9016 5.2475 73.7099 5.11989C73.5261 4.99085 73.3041 4.92744 73.0799 4.93989C72.9705 4.95138 72.8646 4.98474 72.7684 5.038C72.6722 5.09126 72.5877 5.16331 72.5199 5.24989C72.3803 5.41456 72.2843 5.61162 72.2406 5.82302C72.1969 6.03442 72.207 6.25339 72.2699 6.45989C72.3933 6.83813 72.606 7.18112 72.8899 7.45989C73.1563 7.73504 73.4552 7.97681 73.7799 8.17989C74.8475 8.89892 76.1132 9.26606 77.3999 9.22989C78.2401 9.19349 79.0623 8.97513 79.8099 8.5899L80.1599 8.40989L80.4099 8.25989L80.6099 8.13989C80.6231 8.12928 80.6401 8.12438 80.6569 8.12626C80.6738 8.12813 80.6893 8.13663 80.6999 8.14989C80.7105 8.16315 80.7154 8.18009 80.7135 8.19697C80.7116 8.21384 80.7031 8.22929 80.6899 8.2399L80.6599 8.22989Z" fill="#C09068"/>
<path d="M82.19 1.89992L81.99 2.09991C81.86 2.22991 81.67 2.43991 81.43 2.71991C81.1449 3.0693 80.8874 3.44043 80.66 3.82992C80.3466 4.36728 80.1109 4.94638 79.96 5.54992C79.8668 5.90999 79.8098 6.27849 79.79 6.64992C79.7645 7.06124 79.788 7.47415 79.86 7.87992C80.0223 8.80295 80.4029 9.67381 80.97 10.4199C81.6155 11.2608 82.4253 11.9617 83.35 12.4799C84.3686 13.0442 85.4735 13.4362 86.62 13.6399C87.8606 13.8649 89.1276 13.9053 90.38 13.7599C91.7152 13.6 93.0233 13.2637 94.27 12.7599C95.5812 12.2417 96.8265 11.5704 97.98 10.7599C98.5667 10.3466 99.1367 9.90325 99.69 9.42991C99.96 9.18991 100.24 8.94992 100.5 8.68992L100.7 8.49991L100.81 8.39992L100.91 8.29992C101.04 8.16992 101.16 8.04992 101.29 7.89992C101.811 7.34468 102.271 6.73443 102.66 6.07992C102.858 5.74543 103.025 5.39405 103.16 5.02991C103.305 4.68601 103.413 4.3272 103.48 3.95991C103.546 3.55925 103.546 3.15057 103.48 2.74991C103.398 2.34469 103.235 1.96029 103 1.61992C102.761 1.28071 102.455 0.994685 102.1 0.779913C101.744 0.569036 101.35 0.429767 100.94 0.369916C100.737 0.353908 100.533 0.353908 100.33 0.369916H100.02H99.73C99.3213 0.420597 98.919 0.514453 98.53 0.649915C97.7465 0.929136 97.0259 1.36078 96.41 1.91992C96.0986 2.19937 95.814 2.50738 95.56 2.83992C95.301 3.17142 95.0734 3.52628 94.88 3.89992C94.49 4.65559 94.2394 5.47535 94.14 6.31991C94.0319 7.17904 94.0862 8.05084 94.3 8.88991C94.5214 9.74532 94.9353 10.5388 95.51 11.2099C96.0545 11.8551 96.7248 12.3825 97.48 12.7599C98.2344 13.1137 99.0361 13.3562 99.86 13.4799C100.654 13.602 101.457 13.6489 102.26 13.6199C103.04 13.5943 103.819 13.5209 104.59 13.3999L105.17 13.2999L105.73 13.1899C106.12 13.1099 106.48 13.0099 106.84 12.9099C107.57 12.7099 108.28 12.4799 108.97 12.2499C110.36 11.7799 111.71 11.2499 113.02 10.7899C114.33 10.3299 115.62 9.78992 116.87 9.35991C119.37 8.44991 121.76 7.65992 124 7.07992C126.03 6.51731 128.11 6.15557 130.21 5.99991C131.829 5.87618 133.458 6.02148 135.03 6.42991C135.609 6.59078 136.171 6.80503 136.71 7.06991C137.107 7.27104 137.488 7.50169 137.85 7.75992C138.076 7.92123 138.293 8.09482 138.5 8.27991L138.71 8.46992L138.5 8.26992C138.3 8.07522 138.09 7.89161 137.87 7.71991C137.516 7.44547 137.141 7.1981 136.75 6.97992C136.214 6.68826 135.651 6.44722 135.07 6.25992C134.351 6.02494 133.611 5.85755 132.86 5.75992C131.975 5.64873 131.082 5.60527 130.19 5.62992C128.053 5.71129 125.93 6.00269 123.85 6.49991C121.56 7.01991 119.13 7.74992 116.59 8.57992C115.32 8.99992 114.02 9.43991 112.69 9.88991C111.36 10.3399 110.01 10.7999 108.63 11.2199C107.94 11.4299 107.24 11.6299 106.54 11.7999C106.19 11.8799 105.83 11.9699 105.49 12.0299L104.95 12.1199L104.42 12.1899C102.985 12.4035 101.525 12.4035 100.09 12.1899C99.3972 12.0694 98.7242 11.8541 98.09 11.5499C97.1647 11.1167 96.4044 10.3955 95.9231 9.49415C95.4418 8.59284 95.2653 7.55991 95.42 6.54992C95.5079 5.86173 95.6896 5.18881 95.96 4.54992C96.0944 4.20654 96.2514 3.87247 96.43 3.54992C96.6106 3.24144 96.8145 2.94725 97.04 2.66992C97.4895 2.10541 98.0558 1.64486 98.7 1.31991C99.017 1.1609 99.3531 1.04327 99.7 0.969915H99.98H100.24C100.416 0.952725 100.594 0.952725 100.77 0.969915C101.114 1.00676 101.446 1.11469 101.745 1.28686C102.045 1.45902 102.305 1.69163 102.51 1.96991C102.893 2.56144 103.036 3.27664 102.91 3.96991C102.856 4.31422 102.759 4.65026 102.62 4.96991C102.482 5.29745 102.314 5.61202 102.12 5.90992C101.731 6.5037 101.274 7.05063 100.76 7.53991C100.64 7.65991 100.5 7.78992 100.36 7.90992L100.26 7.99991L100.16 8.07992L99.96 8.24991C99.69 8.47991 99.41 8.69992 99.14 8.91992C98.58 9.33992 98.02 9.74992 97.44 10.1199C96.86 10.4899 96.27 10.8199 95.68 11.1199L95.23 11.3399L94.78 11.5399L94.33 11.7299L93.88 11.9099L93.43 12.0799L92.98 12.2399L92.07 12.4999C91.4747 12.6548 90.8702 12.7717 90.26 12.8499C89.1024 13.0126 87.9277 13.0126 86.77 12.8499C85.7221 12.6829 84.7086 12.3451 83.77 11.8499C82.8865 11.4034 82.1063 10.7766 81.48 10.0099C80.9466 9.35491 80.5734 8.58449 80.39 7.75992C80.3041 7.39616 80.2605 7.02369 80.26 6.64992C80.2575 6.31445 80.2876 5.97953 80.35 5.64992C80.4581 5.06802 80.6431 4.50308 80.9 3.96991C81.0925 3.57141 81.313 3.18711 81.56 2.81991C81.76 2.51991 81.93 2.29992 82.05 2.14992L82.23 1.92991L82.19 1.89992Z" fill="#C09068"/>
<path d="M81.0101 8.22995L81.1801 8.39995L81.3901 8.59995L81.7201 8.85995C81.8401 8.95995 82.0001 9.03995 82.1601 9.14995C82.2474 9.2016 82.3375 9.24833 82.4301 9.28995C82.5201 9.28995 82.6201 9.38995 82.7301 9.42995L83.0601 9.56995L83.4301 9.67995C83.5601 9.67995 83.6901 9.73995 83.8301 9.76995C83.972 9.8012 84.1156 9.82457 84.2601 9.83995C84.9297 9.91531 85.6075 9.86786 86.2601 9.69995L86.5201 9.62995L86.7801 9.53995C86.9606 9.47615 87.1375 9.40271 87.3101 9.31995C87.6675 9.14282 88.0031 8.92469 88.3101 8.66995C88.6448 8.38119 88.9347 8.04415 89.1701 7.66995C89.4342 7.29451 89.6087 6.86344 89.6801 6.40995C89.7188 6.17396 89.7049 5.93231 89.6392 5.70235C89.5735 5.4724 89.4577 5.25984 89.3001 5.07995C89.1353 4.88888 88.9089 4.76151 88.6601 4.71995C88.4024 4.68548 88.1401 4.71999 87.9001 4.81995C87.4042 5.03544 86.9757 5.38096 86.6601 5.81995C86.3302 6.25898 86.0983 6.76367 85.9801 7.29995C85.8423 7.85221 85.8083 8.42529 85.8801 8.98995C85.9572 9.57124 86.1475 10.1318 86.4401 10.6399C86.7428 11.1499 87.128 11.6061 87.5801 11.99C88.0315 12.3814 88.5284 12.7172 89.0601 12.99C89.3201 13.13 89.6001 13.2499 89.8701 13.3599L90.0801 13.4399H90.1901H90.2901L90.7101 13.59C90.9901 13.69 91.2801 13.7799 91.5701 13.8699C91.8601 13.9599 92.1501 14.0499 92.4501 14.1199L92.8901 14.2299L93.3401 14.3299L93.7901 14.42L94.2501 14.4999C94.8692 14.5931 95.494 14.6432 96.1201 14.6499C96.7559 14.6586 97.3914 14.6152 98.0201 14.52C98.6556 14.4273 99.2838 14.2903 99.9001 14.1099C100.52 13.9299 101.13 13.7099 101.73 13.4599C102.33 13.2099 102.92 12.9399 103.5 12.6499C104.67 12.0699 105.8 11.4299 106.91 10.7599L108.57 9.75995L109.39 9.23995L110.2 8.71995L111.01 8.20995L111.81 7.70995C112.35 7.37995 112.89 7.05995 113.43 6.70995C115.541 5.52357 117.757 4.53599 120.05 3.75995C121.143 3.37377 122.262 3.06959 123.4 2.84995C124.47 2.64327 125.561 2.55939 126.65 2.59995C126.91 2.59995 127.17 2.59995 127.42 2.66995L127.8 2.72995L128.17 2.80995C128.645 2.91767 129.105 3.08219 129.54 3.29995L129.7 3.37995L129.85 3.46995L130.15 3.65995C130.34 3.79085 130.52 3.93452 130.69 4.08995C131.023 4.38647 131.318 4.72226 131.57 5.08995L131.74 5.35995L131.9 5.64995C131.952 5.74729 131.999 5.84745 132.04 5.94995C132.085 6.04783 132.125 6.14796 132.16 6.24995C132.309 6.64305 132.41 7.05269 132.46 7.46995C132.508 7.86515 132.508 8.26475 132.46 8.65995C132.421 9.03528 132.337 9.40457 132.21 9.75995C131.984 10.4102 131.615 11.0014 131.13 11.49C130.71 11.9016 130.21 12.2217 129.66 12.4299C129.208 12.5956 128.731 12.6802 128.25 12.6799H127.94H127.66L127.17 12.5999L126.79 12.4999L126.52 12.41L126.3 12.3299C126.281 12.3292 126.263 12.3344 126.247 12.3449C126.231 12.3554 126.219 12.3706 126.212 12.3883C126.206 12.406 126.205 12.4254 126.21 12.4436C126.215 12.4619 126.225 12.4781 126.24 12.49L126.46 12.59L126.73 12.7099L127.12 12.84L127.62 12.9699H127.92H128.08H128.25C128.776 13.0077 129.305 12.9501 129.81 12.7999C130.449 12.5955 131.036 12.2542 131.53 11.7999C132.114 11.2752 132.572 10.6258 132.87 9.89995C133.214 9.07182 133.354 8.17348 133.28 7.27995C133.24 6.79673 133.143 6.32 132.99 5.85995C132.99 5.73995 132.91 5.62995 132.86 5.50995C132.816 5.3908 132.766 5.27398 132.71 5.15995L132.54 4.80995L132.34 4.45995C132.27 4.33995 132.2 4.23995 132.14 4.13995L132.04 3.98995L131.99 3.90995L131.73 3.59995L131.66 3.51995L131.59 3.44995L131.44 3.30995C131.243 3.11579 131.032 2.93537 130.81 2.76995L130.46 2.53995L130.28 2.41995L130.09 2.31995C129.578 2.06948 129.037 1.88147 128.48 1.75995L128.06 1.65995L127.63 1.57995C127.34 1.51995 127.05 1.49995 126.76 1.46995C125.577 1.3936 124.388 1.45738 123.22 1.65995C122.017 1.86468 120.83 2.15882 119.67 2.53995C117.274 3.35145 114.96 4.38948 112.76 5.63995C112.2 5.94995 111.64 6.27995 111.09 6.63995C110.54 6.99995 109.99 7.34995 109.47 7.70995L107.86 8.75995L106.29 9.87995C105.29 10.62 104.19 11.35 103.11 12.02C102.57 12.35 102.02 12.67 101.46 12.95C100.903 13.2384 100.328 13.4922 99.7401 13.7099C97.9968 14.3694 96.1139 14.5725 94.2701 14.2999C93.6719 14.2152 93.0804 14.0882 92.5001 13.92L92.0701 13.7899L91.6401 13.6499C91.3601 13.5499 91.0801 13.45 90.8101 13.34L90.4001 13.17H90.3001H90.2001L90.0001 13.0799C89.7401 12.9599 89.4801 12.8299 89.2301 12.6799C88.742 12.4013 88.2889 12.0656 87.8801 11.6799C87.4788 11.3187 87.1408 10.8928 86.8801 10.42C86.4097 9.52211 86.2886 8.48185 86.5401 7.49995C86.6641 7.03907 86.8455 6.5956 87.0801 6.17995C87.1892 5.97253 87.3164 5.7751 87.4601 5.58995C87.5994 5.40656 87.7684 5.24771 87.9601 5.11995C88.1439 4.9909 88.3658 4.9275 88.5901 4.93995C88.6994 4.95143 88.8054 4.9848 88.9016 5.03806C88.9978 5.09131 89.0823 5.16337 89.1501 5.24995C89.2897 5.41461 89.3857 5.61168 89.4294 5.82307C89.473 6.03447 89.463 6.25345 89.4001 6.45995C89.277 6.83836 89.0643 7.18142 88.7801 7.45995C88.5137 7.73509 88.2148 7.97686 87.8901 8.17995C86.8225 8.89897 85.5567 9.26611 84.2701 9.22995C83.4299 9.19355 82.6076 8.97519 81.8601 8.58995L81.5101 8.40995L81.2601 8.25995L81.0601 8.13995C81.0535 8.13469 81.046 8.13079 81.0379 8.12845C81.0298 8.12611 81.0214 8.12538 81.013 8.12631C80.9961 8.12819 80.9807 8.13669 80.9701 8.14995C80.9595 8.16321 80.9546 8.18014 80.9564 8.19702C80.9583 8.2139 80.9668 8.22934 80.9801 8.23995L81.0101 8.22995Z" fill="#C09068"/>
<path d="M152.66 0.68H4.34C4.24983 0.68 4.16335 0.644184 4.09958 0.580421C4.03582 0.516659 4 0.430178 4 0.340004C4 0.24983 4.03582 0.163349 4.09958 0.0995865C4.16335 0.0358241 4.24983 0 4.34 0H152.66C152.75 0 152.837 0.0358241 152.9 0.0995865C152.964 0.163349 153 0.24983 153 0.340004C153 0.430178 152.964 0.516659 152.9 0.580421C152.837 0.644184 152.75 0.68 152.66 0.68Z" fill="#C09068"/>
</g>
<defs>
<filter id="filter0_d_15_847" x="0" y="0" width="157" height="22.7109" filterUnits="userSpaceOnUse" color-interpolation-filters="sRGB">
<feFlood flood-opacity="0" result="BackgroundImageFix"/>
<feColorMatrix in="SourceAlpha" type="matrix" values="0 0 0 0 0 0 0 0 0 0 0 0 0 0 0 0 0 0 127 0" result="hardAlpha"/>
<feOffset dy="4"/>
<feGaussianBlur stdDeviation="2"/>
<feComposite in2="hardAlpha" operator="out"/>
<feColorMatrix type="matrix" values="0 0 0 0 0 0 0 0 0 0 0 0 0 0 0 0 0 0 0.25 0"/>
<feBlend mode="normal" in2="BackgroundImageFix" result="effect1_dropShadow_15_847"/>
<feBlend mode="normal" in="SourceGraphic" in2="effect1_dropShadow_15_847" result="shape"/>
</filter>
</defs>
</svg>
