<svg width="1818" height="12" viewBox="0 0 1818 12" fill="none" xmlns="http://www.w3.org/2000/svg">
<path d="M6.16212 11.8807C9.44191 11.769 12.0102 9.01965 11.8985 5.73984C11.7869 2.46003 9.03753 -0.10816 5.75773 0.00350786C2.47794 0.115176 -0.0903374 2.86445 0.02133 6.14426C0.132997 9.42406 2.88232 11.9924 6.16212 11.8807Z" fill="#C09068"/>
<path d="M1812.14 11.8807C1815.42 11.769 1817.99 9.01965 1817.88 5.73984C1817.77 2.46003 1815.02 -0.10816 1811.74 0.00350786C1808.46 0.115176 1805.89 2.86445 1806 6.14426C1806.12 9.42406 1808.86 11.9924 1812.14 11.8807Z" fill="#C09068"/>
<path d="M893.212 6.50644H47.1253C46.9212 6.50644 46.7254 6.42547 46.581 6.2811C46.4366 6.13673 46.3555 5.94083 46.3555 5.73666C46.3555 5.53249 46.4366 5.33684 46.581 5.19247C46.7254 5.0481 46.9212 4.96689 47.1253 4.96689H893.212C893.416 4.96689 893.612 5.0481 893.756 5.19247C893.9 5.33684 893.982 5.53249 893.982 5.73666C893.982 5.94083 893.9 6.13673 893.756 6.2811C893.612 6.42547 893.416 6.50644 893.212 6.50644Z" fill="#C09068"/>
<path d="M38.4408 5.90512C38.4408 5.90512 34.4474 3.21067 35.1932 0.275725C34.6979 0.685516 34.3739 1.26581 34.2849 1.90243C34.1958 2.53905 34.3482 3.18597 34.7121 3.71591C35.9389 5.25555 33.7498 1.98373 31.2238 5.88095C33.6295 9.77817 35.7224 6.33819 34.7121 8.04623C34.3482 8.57618 34.1958 9.22309 34.2849 9.85971C34.3739 10.4963 34.6979 11.0766 35.1932 11.4864C35.2427 10.3628 35.5641 9.26784 36.1297 8.29574C36.6954 7.32365 37.4884 6.50335 38.4408 5.90512Z" fill="#C09068"/>
<path d="M35.1451 4.19711C34.8372 3.47831 34.3538 2.8483 33.739 2.36508C33.1242 1.88186 32.3979 1.56081 31.6268 1.43149C30.8556 1.30216 30.0643 1.36886 29.3255 1.62509C28.5868 1.88132 27.9242 2.31898 27.3988 2.89804C23.5256 6.45847 22.3228 6.04941 22.3228 6.04941C22.3228 6.04941 24.127 6.04948 27.3506 9.08066C32.0177 13.5552 35.0247 7.49277 35.0247 7.49277L35.1451 4.19711Z" fill="#C09068"/>
<path d="M41.8328 8.31088C43.2545 8.31088 44.4069 7.15829 44.4069 5.73666C44.4069 4.31503 43.2545 3.16269 41.8328 3.16269C40.4112 3.16269 39.2587 4.31503 39.2587 5.73666C39.2587 7.15829 40.4112 8.31088 41.8328 8.31088Z" fill="#C09068"/>
<path d="M1769.9 6.84335H925.138C924.934 6.84335 924.738 6.76214 924.594 6.61777C924.449 6.4734 924.368 6.27775 924.368 6.07358C924.368 5.86941 924.449 5.67351 924.594 5.52914C924.738 5.38477 924.934 5.3038 925.138 5.3038H1769.9C1770.1 5.3038 1770.3 5.38477 1770.44 5.52914C1770.59 5.67351 1770.67 5.86941 1770.67 6.07358C1770.67 6.27775 1770.59 6.4734 1770.44 6.61777C1770.3 6.76214 1770.1 6.84335 1769.9 6.84335Z" fill="#C09068"/>
<path d="M1778.56 5.90512C1778.56 5.90512 1782.55 8.59957 1781.81 11.5345C1782.3 11.1247 1782.63 10.5444 1782.71 9.9078C1782.8 9.27118 1782.65 8.62427 1782.29 8.09433C1781.06 6.55468 1783.25 9.82651 1785.78 5.92929C1783.37 2.03207 1781.28 5.47205 1782.29 3.76401C1782.65 3.23406 1782.8 2.58715 1782.71 1.95053C1782.63 1.31391 1782.3 0.733612 1781.81 0.32382C1781.76 1.44743 1781.44 2.5424 1780.87 3.51449C1780.3 4.48659 1779.51 5.30689 1778.56 5.90512Z" fill="#C09068"/>
<path d="M1781.85 7.61313C1782.16 8.33193 1782.65 8.96194 1783.26 9.44516C1783.88 9.92838 1784.6 10.2494 1785.37 10.3788C1786.14 10.5081 1786.94 10.4414 1787.67 10.1851C1788.41 9.92891 1789.08 9.49126 1789.6 8.9122C1793.47 5.35177 1794.68 5.76083 1794.68 5.76083C1794.68 5.76083 1792.87 5.76076 1789.65 2.72958C1784.98 -1.74501 1781.97 4.31747 1781.97 4.31747L1781.85 7.61313Z" fill="#C09068"/>
<path d="M1775.14 8.64755C1776.56 8.64755 1777.72 7.49521 1777.72 6.07358C1777.72 4.65195 1776.56 3.49936 1775.14 3.49936C1773.72 3.49936 1772.57 4.65195 1772.57 6.07358C1772.57 7.49521 1773.72 8.64755 1775.14 8.64755Z" fill="#C09068"/>
<path d="M909.854 11.8807C913.134 11.769 915.702 9.01965 915.59 5.73984C915.479 2.46003 912.729 -0.10816 909.45 0.00350786C906.17 0.115176 903.601 2.86457 903.713 6.14438C903.825 9.42419 906.574 11.9924 909.854 11.8807Z" fill="#C09068"/>
</svg>
