<svg width="227" height="46" viewBox="0 0 227 46" fill="none" xmlns="http://www.w3.org/2000/svg">
<path d="M0 40.3009C0.699732 39.4179 1.31878 38.5349 2.07233 37.6764C2.82589 36.8179 3.60635 36.0085 4.41373 35.2236C6.05919 33.6228 7.86077 32.1615 9.79628 30.8576C11.7697 29.5527 13.8898 28.4427 16.1208 27.5464C18.3544 26.645 20.6802 25.9467 23.0642 25.4615C25.4448 24.9726 27.8668 24.669 30.3038 24.554C32.7236 24.4179 35.1504 24.4179 37.5703 24.554C39.9924 24.7011 42.3607 24.9955 44.729 25.3389C47.0973 25.6822 49.4388 26.1483 51.7533 26.6388C54.0677 27.1294 56.3822 27.6935 58.6429 28.2822L65.4518 30.0728L72.207 31.8878C74.4407 32.452 76.7014 33.0161 78.9351 33.4821C81.1407 33.953 83.38 34.2809 85.6364 34.4633C86.7296 34.5299 87.8265 34.5299 88.9198 34.4633C90.0275 34.4156 91.1274 34.2677 92.2031 34.0217C93.1464 33.7665 94.0506 33.4039 94.8944 32.9425C95.7503 32.4428 96.5287 31.8405 97.2088 31.152C98.5847 29.6395 99.6266 27.8988 100.277 26.0256L102.403 26.9086C102.134 27.252 101.919 27.5218 101.65 27.7916L100.869 28.6011C100.334 29.1273 99.7679 29.6268 99.1735 30.0973C97.9799 31.0596 96.6601 31.8835 95.2443 32.5501C94.8864 32.7242 94.518 32.8798 94.1408 33.0161C93.7722 33.1586 93.3947 33.2815 93.0105 33.384C92.631 33.5017 92.2447 33.6 91.8532 33.6784H91.2611H90.9651H90.6422C89.0778 33.8474 87.4969 33.8474 85.9325 33.6784C84.3141 33.5115 82.7442 33.0706 81.3035 32.3784C79.8578 31.6691 78.6066 30.6713 77.6433 29.4596C76.698 28.2589 76.0213 26.9004 75.6518 25.4615C75.2833 24.0487 75.1742 22.5899 75.3288 21.1446C75.4779 19.7005 75.8965 18.2903 76.5668 16.9748C77.2391 15.6381 78.2324 14.4561 79.4734 13.5164C80.7401 12.5759 82.2677 11.9731 83.8871 11.7749H84.4792H86.8206H87.4126C87.8125 11.8234 88.2082 11.8971 88.5968 11.9957C90.2126 12.3192 91.6294 13.1976 92.553 14.4484C92.9716 15.1082 93.2227 15.845 93.2879 16.6047C93.3531 17.3645 93.2307 18.1279 92.9297 18.8389C92.6436 19.5531 92.1835 20.1989 91.5841 20.7276C90.9748 21.2565 90.2226 21.6289 89.4042 21.8068C88.5994 21.9838 87.7599 21.9838 86.9551 21.8068C86.1845 21.6125 85.4498 21.3149 84.7752 20.9238C84.6901 20.861 84.6326 20.7726 84.613 20.6744C84.5935 20.5763 84.6131 20.475 84.6685 20.3889C84.7238 20.3029 84.8112 20.2377 84.9147 20.2054C85.0182 20.173 85.1311 20.1755 85.2327 20.2125C85.8345 20.5449 86.4877 20.7929 87.1704 20.9484C87.8249 21.092 88.5075 21.092 89.162 20.9484C89.7962 20.7708 90.373 20.4544 90.8421 20.0269C91.3112 19.5993 91.6584 19.0736 91.8532 18.4956C92.0867 17.9243 92.1765 17.3126 92.116 16.7055C92.0554 16.0985 91.846 15.5115 91.5034 14.9881C90.7307 13.9696 89.5529 13.2657 88.22 13.0258C87.8839 12.9469 87.5423 12.8895 87.1974 12.8541H86.686H84.5599H84.0486C82.6892 13.0415 81.4132 13.5678 80.3615 14.3749C79.3114 15.2081 78.4832 16.2482 77.9394 17.4163C77.3798 18.5906 77.043 19.843 76.9435 21.12C76.6827 23.6705 77.4374 26.2214 79.0697 28.3067C79.8816 29.3296 80.9405 30.1688 82.1646 30.7595C83.3934 31.3209 84.7257 31.6701 86.0939 31.7897C86.784 31.8306 87.4762 31.8306 88.1662 31.7897C88.897 31.7554 89.6249 31.6817 90.3461 31.569H90.5615H90.8037H91.315C91.6109 31.5826 91.9073 31.5826 92.2031 31.569C92.5335 31.4727 92.857 31.358 93.1719 31.2256C93.4948 31.104 93.8094 30.9647 94.1139 30.8086C95.3579 30.2054 96.515 29.4639 97.5587 28.6011C98.0881 28.1685 98.5912 27.71 99.0658 27.2275L99.7386 26.4917L100.331 25.7558L104.529 20.0408L102.511 26.6634C102.349 27.203 102.215 27.7671 102.026 28.3067L101.73 29.1162L101.569 29.5331L101.38 29.9256L101.004 30.7105L100.546 31.4954C100.23 32.0129 99.879 32.5126 99.4964 32.9916C98.6724 33.9324 97.7024 34.7586 96.6168 35.4444C95.506 36.1111 94.3021 36.639 93.0374 37.0142C91.7991 37.3468 90.5282 37.5686 89.2427 37.6764C87.9882 37.7536 86.7294 37.7536 85.4749 37.6764C83.0402 37.5397 80.6202 37.2363 78.2354 36.7689C75.8671 36.3274 73.5526 35.8123 71.265 35.2236L64.4291 33.4576L57.6471 31.569C55.3865 30.9803 53.1527 30.4407 50.892 29.9256C48.6314 29.4105 46.3707 28.9445 44.11 28.552C41.8494 28.1596 39.5618 27.8652 37.2742 27.6445C35.0044 27.4185 32.7214 27.3202 30.4383 27.3501C28.1647 27.3918 25.8977 27.5885 23.6563 27.9388C21.4181 28.2959 19.2202 28.8378 17.0896 29.5577C14.9546 30.2787 12.9073 31.1993 10.9804 32.3048C9.07337 33.4243 7.27286 34.6878 5.5979 36.0821L4.333 37.1613C3.90239 37.5047 3.52558 37.9217 3.12189 38.2896C2.28759 39.0255 1.56096 39.8839 0.780493 40.7424C0.709249 40.806 0.614736 40.8433 0.515127 40.8471C0.415517 40.8509 0.317836 40.821 0.240973 40.7631C0.16411 40.7053 0.113481 40.6235 0.0988038 40.5337C0.0841265 40.4438 0.10643 40.3521 0.16147 40.2764L0 40.3009Z" fill="#C09068"/>
<path d="M225.69 40.7423C224.91 39.9329 224.156 39.0989 223.322 38.2895C222.918 37.9216 222.542 37.5046 222.111 37.1612L220.846 36.082C219.171 34.688 217.37 33.4245 215.464 32.3047C213.537 31.1993 211.489 30.2787 209.354 29.5576C207.224 28.8378 205.026 28.296 202.788 27.9387C200.546 27.5885 198.279 27.3917 196.006 27.35C193.723 27.3201 191.44 27.4184 189.17 27.6444C186.882 27.8651 184.621 28.1595 182.334 28.5519C180.046 28.9444 177.813 29.4104 175.552 29.9255C173.291 30.4406 171.057 30.9802 168.797 31.5688L162.042 33.3839L155.206 35.1499C152.918 35.7141 150.604 36.2537 148.235 36.6952C145.851 37.1626 143.431 37.466 140.996 37.6027C139.741 37.6799 138.483 37.6799 137.228 37.6027C135.943 37.4949 134.672 37.2731 133.433 36.9404C132.169 36.5656 130.965 36.0376 129.854 35.3707C128.768 34.6849 127.798 33.8587 126.974 32.9179C126.591 32.4391 126.241 31.9395 125.925 31.4217C125.763 31.1519 125.602 30.9066 125.467 30.6368L125.09 29.8519L124.902 29.4594L124.498 29.1161L124.202 28.3066C124.014 27.767 123.879 27.2029 123.718 26.6633L121.807 19.9917L126.006 25.7067L126.598 26.4425L127.27 27.1784C127.745 27.6609 128.248 28.1195 128.778 28.5519C129.821 29.4146 130.978 30.156 132.222 30.7594C132.527 30.9154 132.842 31.0546 133.164 31.1764C133.479 31.3086 133.803 31.4233 134.133 31.5198C134.459 31.6276 134.792 31.7177 135.129 31.7896H135.64H135.883H136.098C136.819 31.9023 137.547 31.976 138.278 32.0103C138.968 32.0513 139.66 32.0513 140.35 32.0103C141.718 31.8908 143.05 31.5415 144.279 30.9802C145.503 30.3894 146.562 29.5502 147.374 28.5274C149.016 26.4454 149.78 23.8942 149.527 21.3407C149.428 20.0636 149.092 18.8112 148.531 17.637C147.988 16.4689 147.159 15.4288 146.109 14.5956C145.058 13.7885 143.782 13.2622 142.422 13.0748H141.911H139.785H139.273C138.929 13.1102 138.587 13.1676 138.251 13.2465C136.918 13.4864 135.74 14.1903 134.968 15.2088C134.625 15.7322 134.415 16.3192 134.355 16.9262C134.294 17.5333 134.384 18.145 134.618 18.7162C134.812 19.2942 135.16 19.82 135.629 20.2475C136.098 20.6751 136.675 20.9915 137.309 21.169C137.963 21.3127 138.646 21.3127 139.3 21.169C139.983 21.0136 140.636 20.7655 141.238 20.4332C141.34 20.3962 141.453 20.3937 141.556 20.4261C141.66 20.4584 141.747 20.5235 141.802 20.6096C141.858 20.6957 141.877 20.7969 141.858 20.8951C141.838 20.9932 141.781 21.0817 141.696 21.1445C141.021 21.5356 140.286 21.8332 139.516 22.0275C138.711 22.2045 137.872 22.2045 137.067 22.0275C136.248 21.8495 135.496 21.4772 134.887 20.9483C134.288 20.419 133.828 19.7734 133.541 19.0596C133.24 18.3486 133.118 17.5852 133.183 16.8254C133.248 16.0657 133.499 15.3289 133.918 14.6691C134.841 13.4183 136.258 12.5399 137.874 12.2164C138.263 12.1179 138.658 12.0441 139.058 11.9956H139.65H141.992H142.584C144.203 12.1938 145.731 12.7966 146.997 13.7371C148.238 14.6768 149.232 15.8588 149.904 17.1955C150.574 18.511 150.993 19.9212 151.142 21.3653C151.297 22.8106 151.188 24.2694 150.819 25.6822C150.45 27.121 149.773 28.4796 148.828 29.6802C147.864 30.892 146.613 31.8897 145.167 32.599C143.727 33.2912 142.157 33.7321 140.538 33.899C138.974 34.0681 137.393 34.0681 135.829 33.899H135.506H135.21H134.618C134.226 33.8206 133.84 33.7223 133.46 33.6047C133.076 33.5021 132.699 33.3793 132.33 33.2367C131.953 33.1005 131.584 32.9449 131.227 32.7707C129.811 32.1041 128.491 31.2803 127.297 30.3179C126.703 29.8476 126.137 29.3481 125.602 28.8217L124.821 28.0123C124.552 27.718 124.337 27.4727 124.068 27.1293L126.194 26.2463C126.807 28.1484 127.822 29.923 129.181 31.4707C129.862 32.1591 130.64 32.7613 131.496 33.2613C132.34 33.7224 133.244 34.085 134.187 34.3405C135.22 34.5703 136.274 34.7099 137.336 34.7575C138.429 34.8241 139.526 34.8241 140.619 34.7575C142.876 34.5751 145.115 34.2472 147.32 33.7764C149.554 33.3103 151.788 32.7707 154.049 32.182L160.804 30.367L167.613 28.5764C169.9 28.0123 172.188 27.4482 174.502 26.9331C176.817 26.418 179.158 26.001 181.527 25.6331C183.895 25.2652 186.29 24.9954 188.685 24.8482C191.105 24.7121 193.532 24.7121 195.952 24.8482C198.389 24.9632 200.811 25.2668 203.191 25.7557C205.575 26.2407 207.901 26.9391 210.135 27.8406C212.366 28.7368 214.486 29.8468 216.459 31.1519C218.395 32.4557 220.196 33.917 221.842 35.5178C222.649 36.3273 223.457 37.1367 224.183 37.9706C224.91 38.8046 225.583 39.7121 226.256 40.5951C226.311 40.6709 226.333 40.7625 226.318 40.8524C226.304 40.9423 226.253 41.024 226.176 41.0819C226.099 41.1397 226.002 41.1696 225.902 41.1658C225.802 41.162 225.708 41.1247 225.637 41.0611L225.69 40.7423Z" fill="#C09068"/>
<path d="M225.582 40.8405L224.936 40.2028L224.156 39.4424C223.833 39.1481 223.51 38.7557 223.053 38.4123L221.626 37.1859C221.353 36.9427 221.066 36.7134 220.765 36.4991L219.796 35.7878C218.258 34.6816 216.619 33.6969 214.898 32.8444C210.279 30.5832 205.096 29.4508 199.854 29.5577C196.613 29.618 193.389 30.013 190.246 30.735C186.745 31.5401 183.316 32.5897 179.992 33.8746C178.243 34.5369 176.493 35.2727 174.61 36.0331L169.227 38.4859C167.37 39.3198 165.486 40.1783 163.414 40.9386L163.037 41.0858H162.822H162.633L161.88 41.3311L160.346 41.8217L158.812 42.3122L157.197 42.7537C152.819 44.0011 148.308 44.8232 143.741 45.2065C138.867 45.5937 133.957 45.2456 129.208 44.1763C126.753 43.5841 124.372 42.7621 122.103 41.7235C119.806 40.6206 117.656 39.279 115.698 37.7255C111.735 34.5363 108.631 30.558 106.628 26.0993C105.606 23.8588 104.857 21.5229 104.394 19.1333C103.907 16.7073 103.762 14.2345 103.964 11.775V11.3089V10.8184L104.098 9.95992C104.098 9.69011 104.098 9.34672 104.287 9.02785C104.475 8.70899 104.421 8.39013 104.529 8.0958C104.864 6.84916 105.371 5.64599 106.036 4.51472C106.697 3.3239 107.612 2.26498 108.727 1.39968L109.185 1.08082L109.696 0.81101C110.041 0.630368 110.401 0.474554 110.772 0.344983C111.533 0.101143 112.335 -0.0152015 113.141 0.00158971C113.931 0.0456355 114.706 0.220166 115.428 0.516678C116.101 0.821565 116.718 1.21862 117.258 1.69402C118.262 2.58661 119.059 3.65438 119.6 4.83359C120.128 5.9511 120.517 7.11951 120.757 8.31655C120.757 8.61088 120.757 8.90521 120.919 9.19955C121.08 9.49388 120.919 9.78822 120.919 10.0826V10.9656C120.919 11.2844 120.919 11.5542 120.919 11.8486C121.152 16.5365 120.232 21.2127 118.227 25.5351C115.363 31.9468 110.165 37.2647 103.506 40.5953C101.333 41.6197 99.0517 42.4415 96.6972 43.048C92.0868 44.1762 87.3045 44.6071 82.5411 44.3235C77.9861 44.058 73.4752 43.3509 69.0847 42.2141L67.4968 41.8217L65.9358 41.3556L64.3749 40.8896L63.5944 40.6688H63.406H63.1908L62.814 40.5462L61.3068 40.0066L59.8267 39.4179L57.2161 38.167L51.8336 35.7142C50.0304 34.9784 48.2542 34.2671 46.451 33.6048C40.1546 31.1059 33.3988 29.7081 26.5356 29.4841C21.2777 29.4252 16.0903 30.5902 11.4645 32.869C9.74941 33.722 8.11152 34.698 6.56631 35.7878L5.5975 36.4991C5.29759 36.7056 5.01008 36.9267 4.73627 37.1613L3.28296 38.3877C2.82544 38.7557 2.50248 39.1236 2.17952 39.3934L1.39911 40.1538L0.75315 40.767C0.718469 40.7867 0.677735 40.7956 0.637017 40.7923C0.596299 40.7891 0.557836 40.7738 0.527454 40.7489C0.497072 40.724 0.476395 40.6907 0.468566 40.6542C0.460737 40.6176 0.466217 40.5797 0.484088 40.5462L1.07617 39.8839L1.80279 39.0745C2.13093 38.6899 2.48124 38.3215 2.85234 37.9708L4.25186 36.6463C4.51523 36.3875 4.79373 36.1419 5.08615 35.9104L6.02811 35.1501C7.54978 33.9378 9.18917 32.8541 10.9262 31.9124C13.078 30.7418 15.3721 29.8034 17.762 29.1162C20.6277 28.3865 23.5871 28.0071 26.5625 27.9879C29.9332 27.9852 33.2929 28.3391 36.574 29.0426C40.1821 29.8319 43.7182 30.8734 47.1508 32.1577C48.945 32.8117 50.7392 33.5312 52.5333 34.3161L57.9159 36.7689C59.7729 37.5783 61.6298 38.4123 63.5675 39.2217L63.9443 39.3443H64.1058H64.2942L65.0478 39.5896L66.5549 40.0556L68.0889 40.5217L69.6498 40.9386C73.9098 42.1106 78.2943 42.867 82.7295 43.1952C87.3535 43.5473 92.0095 43.1992 96.5088 42.165C98.801 41.5536 101.019 40.7318 103.129 39.7122C105.263 38.6822 107.258 37.4311 109.077 35.984C110.911 34.5335 112.547 32.8864 113.948 31.0784C115.372 29.2357 116.564 27.2528 117.501 25.1672C118.456 23.0675 119.16 20.88 119.6 18.6428C120.062 16.4041 120.198 14.1196 120.004 11.8486C119.908 10.7219 119.701 9.60536 119.385 8.51277C119.084 7.43393 118.632 6.3951 118.039 5.42226C117.503 4.47071 116.751 3.63444 115.832 2.96947C115.415 2.67896 114.952 2.44743 114.46 2.28268C113.998 2.15108 113.516 2.09299 113.033 2.11099C112.565 2.16295 112.11 2.28737 111.688 2.47891C111.252 2.69523 110.853 2.96787 110.503 3.28833C109.746 3.99098 109.151 4.82506 108.754 5.74112C108.309 6.70231 107.984 7.70609 107.785 8.73352C107.785 9.00333 107.785 9.24861 107.651 9.49389C107.516 9.73917 107.651 9.98444 107.651 10.2788V11.1373V11.8976C107.453 16.2456 108.327 20.5786 110.207 24.5785C111.111 26.5649 112.248 28.4564 113.598 30.22L114.11 30.8577C114.271 31.0784 114.46 31.2992 114.648 31.4954L115.751 32.7218L116.936 33.8746C117.339 34.2425 117.77 34.5859 118.2 34.9538C119.917 36.3447 121.794 37.5618 123.798 38.584C125.813 39.5888 127.931 40.4103 130.123 41.0368C134.5 42.1361 139.047 42.567 143.579 42.3122C147.959 42.07 152.299 41.404 156.524 40.3254L158.058 39.9575L159.619 39.516L161.153 39.0745L161.907 38.8538H162.095H162.257H162.606C164.517 38.2161 166.401 37.3821 168.285 36.5972L173.829 34.2671C175.659 33.5312 177.489 32.8199 179.212 32.1822C182.709 30.9315 186.309 29.931 189.977 29.1898C193.27 28.5149 196.64 28.1939 200.015 28.2332C202.993 28.2729 205.951 28.6687 208.816 29.4105C211.229 30.0713 213.55 30.985 215.732 32.1331C217.462 33.0753 219.101 34.1503 220.63 35.3463L221.572 36.1066C221.874 36.3374 222.161 36.583 222.434 36.8425L223.86 38.167C224.291 38.5594 224.613 38.9274 224.909 39.2462L225.663 40.0556L226.282 40.7179C226.307 40.7421 226.326 40.7704 226.339 40.8014C226.351 40.8323 226.357 40.8652 226.356 40.8983C226.355 40.9313 226.347 40.9638 226.332 40.9938C226.316 41.0239 226.295 41.051 226.269 41.0736C226.242 41.0961 226.211 41.1137 226.177 41.1253C226.143 41.1368 226.107 41.1422 226.071 41.1411C226.034 41.1399 225.999 41.1323 225.966 41.1186C225.933 41.1049 225.903 41.0854 225.878 41.0613L225.582 40.8405Z" fill="#C09068"/>
</svg>
