<svg width="1654" height="1587" viewBox="0 0 1654 1587" fill="none" xmlns="http://www.w3.org/2000/svg">
<path opacity="0.5" d="M1653.48 1223.02L1405.2 1089.31M1405.2 1089.31L1162.19 958.448M1405.2 1089.31L1536.06 846.305M1405.2 1089.31L1274.34 1332.31M1162.19 958.448L919.188 827.587M1162.19 958.448L1293.05 715.444M1162.19 958.448L1031.33 1201.45M919.188 827.587L676.183 696.726M919.188 827.587L1050.05 584.582M919.188 827.587L788.327 1070.59M676.183 696.726L433.178 565.864M676.183 696.726L807.044 453.721M676.183 696.726L545.322 939.73M433.178 565.864L190.174 435.003M433.178 565.864L564.04 322.86M433.178 565.864L302.317 808.869M190.174 435.003L0.595963 332.913M190.174 435.003L321.035 191.998M190.174 435.003L59.3123 678.008M1522.62 1466.02L1274.34 1332.31M1274.34 1332.31L1031.33 1201.45M1274.34 1332.31L1143.47 1575.32M1031.33 1201.45L788.327 1070.59M1031.33 1201.45L900.47 1444.46M788.327 1070.59L545.322 939.73M788.327 1070.59L657.465 1313.6M545.322 939.73L302.317 808.869M545.322 939.73L414.461 1182.74M302.317 808.869L59.3123 678.008M302.317 808.869L171.456 1051.87M59.3123 678.008L0.595971 646.388M59.3123 678.008L0.595972 787.042M412.043 22.9999L321.035 191.998M321.035 191.998L564.04 322.86M321.035 191.998L72.7474 58.2922M733.596 7.99993L694.901 79.8548M694.901 79.8548L564.04 322.86M694.901 79.8548L937.906 210.716M694.901 79.8548L548.596 1.06763M564.04 322.86L807.044 453.721M171.456 1051.87L40.5944 1294.88M171.456 1051.87L414.461 1182.74M171.456 1051.87L0.59597 959.864M40.5944 1294.88L0.595947 1369.15M40.5944 1294.88L283.599 1425.74M40.5944 1294.88L0.595997 1273.34M1038.99 22.9999L937.906 210.716M937.906 210.716L807.044 453.721M937.906 210.716L1180.91 341.577M807.044 453.721L1050.05 584.582M414.461 1182.74L283.599 1425.74M414.461 1182.74L657.465 1313.6M283.599 1425.74L197.297 1586M283.599 1425.74L526.604 1556.6M1314.62 93.29L1180.91 341.577M1180.91 341.577L1050.05 584.582M1180.91 341.577L1423.92 472.439M1050.05 584.582L1293.05 715.444M657.465 1313.6L526.604 1556.6M657.465 1313.6L900.47 1444.46M526.604 1556.6L510.772 1586M526.604 1556.6L581.196 1586M1557.62 224.151L1423.92 472.439M1423.92 472.439L1293.05 715.444M1423.92 472.439L1653.48 596.065M1293.05 715.444L1536.06 846.305M900.47 1444.46L824.248 1586M900.47 1444.46L1143.47 1575.32M1163.31 1586L1143.47 1575.32M1143.47 1575.32L1137.72 1586M1653.48 909.54L1536.06 846.305M1536.06 846.305L1653.48 628.249" stroke="#C09068"/>
</svg>
