<svg width="12" height="24" viewBox="0 0 12 24" fill="none" xmlns="http://www.w3.org/2000/svg">
<path d="M6.18639 21.6844C5.66135 20.7678 4.79026 19.561 3.36256 17.9859C3.34736 17.9691 3.33141 17.9531 3.31475 17.9377C2.78747 17.4525 2.38792 16.8398 2.15382 16.1553C1.91972 15.4708 1.85886 14.7371 1.9771 14.0222C2.09533 13.3072 2.38867 12.6346 2.82924 12.0662C3.02871 11.8089 3.14949 11.726 3.27709 11.6527C3.30823 11.6349 3.35182 11.612 3.40513 11.584C3.57237 11.4961 3.83541 11.358 4.11095 11.1661C4.45089 10.9294 4.53459 10.462 4.29791 10.1221C4.18062 9.95361 4.00666 9.84807 3.81963 9.81327C4.13691 9.59419 4.42773 9.3604 4.68716 9.13152C5.22599 8.65616 5.67551 8.16216 6.00571 7.76509C6.62002 8.52012 7.36344 9.16169 8.20362 9.65749C8.30003 9.71439 8.39746 9.76921 8.49586 9.82196C8.1728 9.74266 7.82611 9.88679 7.65986 10.1902C7.46654 10.543 7.58604 10.9856 7.93068 11.1931C8.01936 11.2465 8.11 11.2974 8.20251 11.3452C8.71431 11.6514 9.78442 12.4044 10.2833 13.5032C10.5256 14.037 10.6348 14.6551 10.4747 15.3733C10.3125 16.1014 9.86041 16.9894 8.87989 18.0266L8.87987 18.0266L8.87492 18.0319C7.50959 19.5044 6.68458 20.7316 6.18639 21.6844ZM8.64128 9.89803C8.64131 9.89804 8.64133 9.89806 8.64136 9.89807L8.3176 10.5506L8.64128 9.89803ZM5.87124 4.83871C4.77361 4.83871 3.86588 3.93338 3.86588 2.79435C3.86588 1.65533 4.77361 0.75 5.87124 0.75C6.96887 0.75 7.87661 1.65533 7.87661 2.79435C7.87661 3.93338 6.96887 4.83871 5.87124 4.83871Z" fill="#C09068" stroke="#C09068" stroke-width="1.5" stroke-linejoin="round"/>
</svg>
