<svg width="235" height="114" viewBox="0 0 235 114" fill="none" xmlns="http://www.w3.org/2000/svg">
<g filter="url(#filter0_d_16_70)">
<path d="M20.7254 14.8786L200 6.10499L211 3.00006L212.522 15.4999L214.917 64.4456L23.6094 73.8081L20.7254 14.8786Z" fill="#F6F1D6"/>
</g>
<path d="M26.5 70L24 18L203 8.5L208.5 6.5L210 14.5L211.5 61.5L26.5 70Z" stroke="#C09068"/>
<path opacity="0.5" d="M212.5 16L200 6L211 3L212.5 16Z" fill="url(#paint0_linear_16_70)"/>
<path d="M53.7686 34.9029L49.6233 35.1014L50.4604 52.5814L54.7805 52.3745C57.5273 52.243 58.8813 50.7265 58.7522 48.0296L58.684 46.6062C58.5955 44.7583 57.9578 43.4623 56.457 42.9585C57.6531 42.3256 58.1475 41.1506 58.0614 39.3527L58.0315 38.7284C57.9023 36.0315 56.6153 34.7666 53.7686 34.9029ZM54.0542 44.5253C55.3028 44.4655 55.8511 44.9398 55.9288 46.5629L56.0018 48.0862C56.0639 49.3847 55.5848 49.8331 54.6609 49.8774L53.0877 49.9527L52.8306 44.5839L54.0542 44.5253ZM53.8133 37.4036C54.7871 37.357 55.238 37.886 55.2978 39.1346L55.3444 40.1085C55.4114 41.5069 54.8086 41.9863 53.7848 42.0353L52.711 42.0867L52.4898 37.467L53.8133 37.4036ZM66.1612 45.297L66.2808 47.7942C66.3406 49.0427 65.8127 49.5185 64.9388 49.5604C64.0648 49.6022 63.4939 49.1791 63.4341 47.9305L62.982 38.4913C62.9222 37.2427 63.4489 36.742 64.3229 36.7001C65.1969 36.6583 65.769 37.1064 65.8288 38.355L65.9185 40.2278L68.5155 40.1035L68.4342 38.4054C68.3002 35.6086 66.8253 34.0774 64.1284 34.2066C61.4315 34.3357 60.1096 36.0009 60.2436 38.7977L60.6788 47.8872C60.8128 50.684 62.2877 52.2152 64.9846 52.0861C67.6815 51.9569 69.0034 50.2918 68.8695 47.495L68.7582 45.1727L66.1612 45.297ZM73.2658 36.4721L76.3872 36.3226L77.1047 51.3054L79.9015 51.1715L79.0644 33.6915L70.3993 34.1065L71.2364 51.5865L73.9833 51.4549L73.2658 36.4721ZM84.2701 37.4719C84.2103 36.2233 84.737 35.7225 85.611 35.6807C86.485 35.6388 87.0571 36.087 87.1169 37.3355L87.5689 46.7747C87.6287 48.0233 87.102 48.5241 86.2281 48.5659C85.3541 48.6078 84.782 48.1596 84.7222 46.911L84.2701 37.4719ZM81.9669 46.8678C82.1009 49.6646 83.6507 51.1922 86.3476 51.063C89.0445 50.9339 90.4413 49.2652 90.3074 46.4684L89.8721 37.3788C89.7382 34.582 88.1883 33.0544 85.4914 33.1835C82.7945 33.3127 81.3977 34.9814 81.5317 37.7782L81.9669 46.8678ZM95.7513 32.8924L91.9307 33.0754L92.7678 50.5554L95.1651 50.4406L94.5731 38.0797L97.2127 50.3425L99.8097 50.2181L101.107 37.5916L101.708 50.1273L104.305 50.0029L103.468 32.5229L99.6469 32.7059L98.3684 45.2063L95.7513 32.8924ZM109.19 42.2603L112.312 42.1108L112.67 49.6023L115.467 49.4683L114.63 31.9884L111.833 32.1223L112.192 39.6137L109.071 39.7632L108.712 32.2718L105.965 32.4033L106.802 49.8833L109.549 49.7517L109.19 42.2603ZM122.694 41.0881L123.612 36.7392L124.201 49.0501L126.673 48.9317L125.836 31.4517L122.815 31.5964L120.913 38.9208L120.098 42.8142L119.568 31.7519L117.121 31.8691L117.958 49.349L120.78 49.2139L122.694 41.0881ZM127.598 33.8702L130.47 33.7327L131.187 48.7155L133.934 48.584L133.216 33.6012L136.088 33.4636L135.969 30.9665L127.478 31.3731L127.598 33.8702ZM142.56 48.1709C145.307 48.0393 146.583 46.4515 146.449 43.6547L146.34 41.3823C146.206 38.5855 144.784 37.1268 142.038 37.2584L140.739 37.3206L140.425 30.7531L137.678 30.8846L138.515 48.3646L142.56 48.1709ZM141.142 45.7359L140.859 39.8177L142.157 39.7555C143.031 39.7137 143.525 40.0905 143.585 41.3391L143.71 43.9611C143.77 45.2096 143.315 45.6319 142.441 45.6737L141.142 45.7359ZM156.478 29.9843L152.333 30.1828L153.17 47.6628L157.49 47.4559C160.237 47.3244 161.591 45.8079 161.462 43.111L161.393 41.6876C161.305 39.8397 160.667 38.5437 159.166 38.0399C160.363 37.407 160.857 36.232 160.771 34.4341L160.741 33.8098C160.612 31.1129 159.325 29.848 156.478 29.9843ZM156.764 39.6067C158.012 39.5469 158.561 40.0212 158.638 41.6443L158.711 43.1676C158.773 44.4661 158.294 44.9145 157.37 44.9588L155.797 45.0341L155.54 39.6653L156.764 39.6067ZM156.523 32.485C157.497 32.4384 157.947 32.9675 158.007 34.216L158.054 35.1899C158.121 36.5883 157.518 37.0677 156.494 37.1167L155.42 37.1681L155.199 32.5484L156.523 32.485ZM168.871 40.3784L168.99 42.8756C169.05 44.1241 168.522 44.5999 167.648 44.6418C166.774 44.6836 166.203 44.2605 166.144 43.0119L165.691 33.5727C165.632 32.3241 166.158 31.8234 167.032 31.7815C167.906 31.7397 168.478 32.1878 168.538 33.4364L168.628 35.3092L171.225 35.1849L171.144 33.4868C171.01 30.69 169.535 29.1588 166.838 29.288C164.141 29.4171 162.819 31.0823 162.953 33.8791L163.388 42.9686C163.522 45.7654 164.997 47.2966 167.694 47.1675C170.391 47.0383 171.713 45.3732 171.579 42.5764L171.468 40.2541L168.871 40.3784ZM175.975 31.5535L180.72 31.3263L180.6 28.8291L173.109 29.1879L173.946 46.6679L181.437 46.3091L181.318 43.812L176.573 44.0392L176.328 38.9201L180.099 38.7395L179.979 36.2423L176.208 36.4229L175.975 31.5535Z" fill="#5C3C1F"/>
<defs>
<filter id="filter0_d_16_70" x="0.725342" y="3" width="234.192" height="110.808" filterUnits="userSpaceOnUse" color-interpolation-filters="sRGB">
<feFlood flood-opacity="0" result="BackgroundImageFix"/>
<feColorMatrix in="SourceAlpha" type="matrix" values="0 0 0 0 0 0 0 0 0 0 0 0 0 0 0 0 0 0 127 0" result="hardAlpha"/>
<feOffset dy="20"/>
<feGaussianBlur stdDeviation="10"/>
<feColorMatrix type="matrix" values="0 0 0 0 0 0 0 0 0 0 0 0 0 0 0 0 0 0 0.1 0"/>
<feBlend mode="normal" in2="BackgroundImageFix" result="effect1_dropShadow_16_70"/>
<feBlend mode="normal" in="SourceGraphic" in2="effect1_dropShadow_16_70" result="shape"/>
</filter>
<linearGradient id="paint0_linear_16_70" x1="205" y1="11" x2="211" y2="3" gradientUnits="userSpaceOnUse">
<stop stop-color="white"/>
<stop offset="1" stop-color="white" stop-opacity="0"/>
</linearGradient>
</defs>
</svg>
